<?xml version="1.0" encoding="utf-8"?>
<!-- Generator: Adobe Illustrator 24.1.2, SVG Export Plug-In . SVG Version: 6.00 Build 0)  -->
<svg version="1.0" id="Ebene_1" xmlns="http://www.w3.org/2000/svg" xmlns:xlink="http://www.w3.org/1999/xlink" x="0px" y="0px"
	 viewBox="0 0 3661 1063" style="enable-background:new 0 0 3661 1063;" xml:space="preserve">
<style type="text/css">
	.st0{fill:none;stroke:#000000;stroke-miterlimit:10;}
</style>
<image style="overflow:visible;opacity:0.4;enable-background:new    ;" width="3661" height="1063" xlink:href="../overlays/overlay.png" >
</image>
<path class="st0" d="M34,110.5c0,0,626.8,7.1,835,23c207.5,15.8,825.9,103.4,825.9,103.4L2082,105.5l1440.9-47.9"/>
<path class="st0" d="M775.1,980.1c-6.4-12.8-44.7-178.9-44.7-178.9l-1.1-139.5l51.6-72.9L965,565l12.9-165.7l25.3-40.6l45-10.5
	l318.9,45.2l34.6,75.8l0.5-64.1l34.6-18.1"/>
<polygon class="st0" points="1661.9,839 1653.4,847.5 1665.6,853.4 1676.8,850.2 1676.8,843.3 "/>
<path class="st0" d="M34,274c0,0,1326,1,1838-355"/>
<path class="st0" d="M-61,582c0,0,432,189,1020-220"/>
<path class="st0" d="M-104,743c0,0,313,266,747,266"/>
<line class="st0" x1="3522.9" y1="166.6" x2="77.9" y2="348.2"/>
</svg>
