<?xml version="1.0" encoding="utf-8"?>
<!-- Generator: Adobe Illustrator 24.1.2, SVG Export Plug-In . SVG Version: 6.00 Build 0)  -->
<svg version="1.0" id="Ebene_1" xmlns="http://www.w3.org/2000/svg" xmlns:xlink="http://www.w3.org/1999/xlink" x="0px" y="0px"
	 viewBox="0 0 3661 1063" style="enable-background:new 0 0 3661 1063;" xml:space="preserve">
<style type="text/css">
	.st0{fill:none;stroke:#000000;stroke-miterlimit:10;}
</style>
<image style="overflow:visible;opacity:0.2;" width="3661" height="1063" xlink:href="../overlays/at.png" >
</image>
<line class="st0" x1="1160.6" y1="298.1" x2="1013.7" y2="167.2"/>
<line class="st0" x1="1362.9" y1="125.7" x2="1362.9" y2="28.8"/>
<line class="st0" x1="1565.2" y1="140.6" x2="1612" y2="45.8"/>
<line class="st0" x1="1716.4" y1="125.7" x2="1788.8" y2="28.8"/>
<line class="st0" x1="2151.8" y1="303.5" x2="2048.5" y2="224.7"/>
<path class="st0" d="M2343.4,160.8c0-3.2,3.2-115,3.2-115"/>
<line class="st0" x1="2645.8" y1="202.3" x2="2713.9" y2="85.2"/>
<line class="st0" x1="2627.7" y1="391.8" x2="2721.4" y2="378"/>
<line class="st0" x1="2576.6" y1="481.2" x2="2713.9" y2="555.8"/>
<line class="st0" x1="2528.7" y1="700.6" x2="2645.8" y2="748.5"/>
<line class="st0" x1="2076.2" y1="577.1" x2="1942.1" y2="589.8"/>
<line class="st0" x1="1800.5" y1="444" x2="1879.3" y2="402.5"/>
<line class="st0" x1="1166" y1="513.2" x2="950.9" y2="468.5"/>
</svg>
